<?xml version="1.0" encoding="UTF-8"?>
<svg width="31px" height="17px" viewBox="0 0 31 17" version="1.1" xmlns="http://www.w3.org/2000/svg" xmlns:xlink="http://www.w3.org/1999/xlink">
    <!-- Generator: Sketch 51.2 (57519) - http://www.bohemiancoding.com/sketch -->
    <title>taco</title>
    <desc>Created with Sketch.</desc>
    <defs></defs>
    <g id="Page-9" stroke="none" stroke-width="1" fill="none" fill-rule="evenodd">
        <g id="A-|-Order:-Step-1-|-Large" transform="translate(-21.000000, -15.000000)" fill-rule="nonzero">
            <g id="taco" transform="translate(21.000000, 15.000000)">
                <path d="M3.68784864,17 L28.4178877,17 C28.6829493,16.8284346 30.0829941,14.6410916 29.8599867,13.6790159 C29.6343358,12.7057208 30.2622653,11.4224858 29.8647929,10.5165079 C29.4675608,9.61123124 28.4969496,9.26342548 27.9377487,8.44767134 C27.3857572,7.64220184 27.5109586,6.20750304 26.8104555,5.51072283 C26.1073092,4.81113773 24.731776,5.00303861 23.929622,4.46403314 C23.1173748,3.91824928 22.7177397,2.53660957 21.8259501,2.1644948 C20.9341605,1.79238003 19.7273248,2.50388591 18.7776206,2.31455619 C17.8396915,2.12756384 16.9731344,1 15.9998798,1 C15.0268656,1 14.1603085,2.12756384 13.2223794,2.31455619 C12.2726751,2.50388591 11.0658395,1.79238003 10.1740498,2.1644948 C9.2822603,2.53660957 8.88262512,3.91824928 8.07037807,4.46403314 C7.268224,5.00303861 5.89269082,4.81113773 5.18954444,5.51072283 C4.48904142,6.20750304 4.6142428,7.64220184 4.06225125,8.44767134 C3.50305038,9.26342548 2.53219887,9.61123124 2.13520711,10.5165079 C1.73773477,11.4224858 2.36566421,12.7057208 2.14001331,13.6790159 C1.91676554,14.6410916 3.42254665,16.8284346 3.68784864,17 Z" id="Shape" fill="#A0E557"></path>
                <path d="M11.4745023,4.38689097 C9.37473435,2.47802763 5.89322676,2.54837554 3.69821777,4.54382091 C1.50320877,6.53926634 1.4258254,9.70424566 3.52559333,11.613109 C5.62536126,13.5219724 9.10686884,13.4516245 11.3018778,11.456179 C13.4968869,9.46073367 13.5740222,6.29575436 11.4745023,4.38689097 Z" id="Shape" fill="#FD8F31"></path>
                <path d="M8.25626794,12 C7.36892438,12 6.54615968,11.6660564 5.93956178,11.059536 C4.62259603,9.74273843 4.69949914,7.5231842 6.11111487,6.11199521 C6.82813775,5.39506392 7.7628063,5 8.74282796,5 C9.63041799,5 10.4529362,5.33394361 11.0595341,5.94046403 C11.6858508,6.56670068 12.019344,7.41696301 11.9991324,8.33524625 C11.9779347,9.28606134 11.5833133,10.1927613 10.887981,10.8880048 C10.1709582,11.6051825 9.23628961,12 8.25626794,12 Z" id="Shape" fill="#EFA335"></path>
                <path d="M27.3018779,4.5437474 C25.1068688,2.54828468 21.6253613,2.47816162 19.5255934,4.38681609 C17.4258254,6.29569608 17.5032088,9.46070291 19.6982178,11.4561656 C21.8932268,13.4516284 25.3747343,13.5219769 27.4745023,11.6130969 C29.5740222,9.704217 29.4968869,6.53921017 27.3018779,4.5437474 Z" id="Shape" fill="#FD8F31"></path>
                <path d="M23.7436267,12 C24.6312455,12 25.4540368,11.6660564 26.0604078,11.059536 C27.3774162,9.74273843 27.3005106,7.5231842 25.8888492,6.11199521 C25.1718031,5.39506392 24.2373508,5 23.2572975,5 C22.3696787,5 21.5468874,5.33394361 20.9405164,5.94046403 C20.3141795,6.56670068 19.9804289,7.41696301 20.0008878,8.33524625 C20.0218396,9.28606134 20.4164738,10.1927613 21.1120751,10.8880048 C21.8291211,11.6051825 22.7635734,12 23.7436267,12 Z" id="Shape" fill="#EFA335"></path>
                <g id="Group" transform="translate(1.000000, 2.000000)" fill="#FC4E51">
                    <path d="M6.29753386,11.8763893 C6.09775036,10.4539585 4.53760355,9.51425209 2.8129706,9.77755619 C1.08833771,10.0406152 -0.147778614,11.4069038 0.0520048795,12.8290893 C0.252023735,14.25152 1.81217054,15.1912265 3.53680349,14.9279223 C5.26143639,14.6648633 6.49755271,13.2985748 6.29753386,11.8763893 Z" id="Shape"></path>
                    <path d="M27.1903238,9.77608525 C25.4656909,9.5130263 23.905544,10.4527327 23.7055252,11.8749183 C23.5057417,13.2971038 24.7416228,14.6633924 26.4662557,14.9266965 C28.1911239,15.1897555 29.7512707,14.250049 29.9510542,12.8278635 C30.151073,11.4054328 28.9149567,10.0391442 27.1903238,9.77608525 Z" id="Shape"></path>
                    <path d="M17.9946348,2.21283339 C17.9946348,1.01374544 16.6538027,0.0419227406 15,0.0419227406 C13.3461973,0.0419227406 12.0053652,1.01374544 12.0053652,2.21283339 C12.0053652,3.41167626 13.3461973,4.3837441 15,4.3837441 C16.6538027,4.3837441 17.9946348,3.41167626 17.9946348,2.21283339 Z" id="Shape"></path>
                </g>
                <path d="M14.9999903,4 C8.02248559,4 2.32734974,9.48547817 2.00067074,16.3747344 C1.98459681,16.7157025 2.25950834,17 2.60107937,17 L27.3991377,17 C27.7407087,17 28.0156202,16.7157025 27.9993099,16.3747344 C27.6726309,9.48547817 21.9777314,4 14.9999903,4 Z" id="Shape" fill="#FCCF3F"></path>
                <path d="M15.7728148,4 C15.1715345,4 14.5801152,4.04014098 14,4.11640879 C20.4743458,4.96763299 25.4676179,10.4109816 25.4676179,17 L28.3886376,17 C28.7361776,17 29.0158932,16.7154715 28.9992978,16.3745096 C28.6669101,9.48537854 22.8724921,4 15.7728148,4 Z" id="Shape" fill="#EFA335"></path>
                <path d="M30.1927772,12.3582338 C30.0255639,12.1846709 29.8380106,12.0280014 29.6346111,11.8882255 C29.728979,11.2379432 29.8257121,10.5656762 29.5629482,9.96306583 C29.3836729,9.55183748 29.1135772,9.24682958 28.8302369,8.98602239 C28.9993423,7.33578639 28.4113759,5.60501715 27.1126936,4.3345367 C26.0325475,3.27742294 24.6134811,2.6699528 23.1166025,2.62343796 C21.7074696,2.57993153 20.3780408,3.03698051 19.3421223,3.91497733 C19.1687597,3.86452841 18.9937415,3.81824497 18.8180138,3.77473848 C18.3885097,2.73174121 17.049857,2 15.5,2 C13.9503795,2 12.6114903,2.73174121 12.1819862,3.77473848 C12.0062585,3.81824497 11.8314768,3.86452841 11.6578777,3.91497733 C10.6221957,3.03698051 9.29276698,2.57970013 7.88363399,2.62343796 C6.38675544,2.6699528 4.96745252,3.27742294 3.88730645,4.3345367 C2.58862415,5.60524855 2.00065766,7.33578639 2.16976309,8.98602239 C1.88665929,9.24682958 1.61632712,9.55206888 1.43705176,9.96306583 C1.17428795,10.5656762 1.27125752,11.2379432 1.36538889,11.8882255 C1.16198937,12.0280014 0.974436107,12.1846709 0.807222765,12.3582338 C0.186144725,13.0029621 -0.0912827455,13.7911691 0.0264997372,14.5775248 C0.202227478,15.7524299 1.27102102,16.688281 2.69434461,16.9220124 C2.820405,16.9724613 2.95616238,17 3.09428485,17 L27.9057152,17 C28.0438376,17 28.179595,16.9724613 28.3056554,16.9220124 C29.7292155,16.6880496 30.7977725,15.7524299 30.9735003,14.5775248 C31.0912827,13.7911691 30.8138553,13.0029621 30.1927772,12.3582338 Z M23.0877481,3.51069147 C24.3533189,3.55003242 25.5547951,4.06539848 26.4712755,4.96214014 C28.0050498,6.46288066 28.3732976,8.71480143 27.4610743,10.4751921 C27.2695004,10.1153383 27.0611341,9.76381558 26.8355026,9.42201239 C27.1178968,8.4572341 26.9797743,7.40058321 26.4440767,6.48787377 C26.3191989,6.27543276 26.0420079,6.20207352 25.8246543,6.32403034 C25.6075371,6.44621862 25.5325631,6.71743964 25.657441,6.930112 C25.9242254,7.38461537 26.0628209,7.88355085 26.0703892,8.37785799 C26.0457921,8.34731092 26.0204854,8.31699531 25.9954153,8.28667964 C25.9772039,8.26446359 25.9589926,8.24178468 25.9405447,8.21980003 C25.9069601,8.17953347 25.8729025,8.13996111 25.8388449,8.10015735 C25.8012397,8.05618811 25.7633979,8.01221882 25.7253196,7.96848098 C25.7047432,7.94510786 25.6839302,7.92196614 25.6631172,7.89859302 C25.6101387,7.83911875 25.5566872,7.77987595 25.5025262,7.72132741 C25.4923562,7.71045079 25.4821863,7.69957417 25.4720163,7.68846614 C25.4065027,7.61811531 25.3402796,7.54822735 25.2731104,7.47903359 C25.2714549,7.47718225 25.2695628,7.47533092 25.2676707,7.47347958 C24.8261045,7.0189762 24.3526094,6.59571416 23.8500233,6.20716467 C23.842455,6.20137925 23.8348866,6.19513097 23.8270818,6.18934556 C23.7625143,6.13959085 23.6970006,6.0905304 23.6314871,6.04193282 C23.6097281,6.02596499 23.5882056,6.00930295 23.5664465,5.99356664 C23.5302604,5.96695365 23.4936012,5.94126632 23.4571784,5.91511619 C23.1889749,5.72257708 22.9146221,5.54045173 22.6343564,5.36874014 C22.7325085,5.35878925 22.8320797,5.35323524 22.9330699,5.35323524 C23.4120048,5.35323524 23.8732014,5.46107562 24.3041246,5.67397944 C24.3698747,5.70637785 24.4396455,5.72165142 24.5082336,5.72165142 C24.6740279,5.72165142 24.8336729,5.63232435 24.9136136,5.47773766 C25.0264294,5.25881702 24.9367917,4.991993 24.7130522,4.88160696 C24.1541766,4.60552625 23.5553306,4.46551886 22.9330699,4.46551886 C22.4378158,4.46551886 21.9475283,4.56294549 21.5012319,4.74761644 C21.1325112,4.56780523 20.7559855,4.40511899 20.3723645,4.25955753 C21.1592369,3.74280294 22.0996049,3.4801444 23.0877481,3.51069147 Z M15.5,2.88771637 C16.3076853,2.88771637 17.0479649,3.13417567 17.5216966,3.51971676 C17.4443575,3.50837733 17.3670184,3.49796357 17.2894428,3.48778115 C17.2771442,3.48616128 17.2650821,3.48454134 17.2527836,3.48315287 C17.1789921,3.47366472 17.1052006,3.46463949 17.0311726,3.45653988 C17.0141438,3.45468854 16.9968785,3.4530686 16.9796133,3.45121727 C16.8388892,3.43617516 16.6976921,3.42298434 16.5560219,3.41233918 C16.5415948,3.41118211 16.5269311,3.40979357 16.5122674,3.4088679 C16.4633096,3.40516523 16.4143518,3.40238822 16.365394,3.39937981 C16.3143076,3.39614 16.2629847,3.39290013 16.2116618,3.39035453 C16.1688533,3.38827179 16.1258083,3.38618905 16.0829998,3.38456911 C16.0210339,3.38179211 15.959068,3.37970937 15.8971021,3.37785803 C15.8625715,3.37693236 15.8278043,3.37577529 15.7932737,3.37508102 C15.6955947,3.37299822 15.5979156,3.37160975 15.5,3.37160975 C15.4023209,3.37160975 15.3046419,3.37299822 15.2067263,3.37508102 C15.1721957,3.37577529 15.137665,3.37693236 15.1031344,3.37785803 C15.040932,3.37970937 14.9792027,3.38179211 14.9172367,3.38456911 C14.8741917,3.38618905 14.8311467,3.38827179 14.7883382,3.39035453 C14.7370153,3.39313153 14.6859289,3.39614 14.6348425,3.39937981 C14.5856482,3.40238822 14.5366904,3.40516523 14.4877326,3.4088679 C14.4737785,3.40979357 14.4595878,3.41118211 14.4456337,3.41210777 C14.303254,3.42298434 14.1613473,3.43617516 14.0199138,3.45121727 C14.0031215,3.4530686 13.9860927,3.45468854 13.9690639,3.45653988 C13.8950359,3.4648709 13.8210079,3.47389618 13.7469799,3.48315287 C13.7349179,3.48477275 13.7230923,3.48616128 13.7110303,3.48778115 C13.6334546,3.49796357 13.555879,3.50837733 13.4785399,3.51971676 C13.9522716,3.13417567 14.6925512,2.88771637 15.5,2.88771637 Z M4.52896097,4.96214014 C5.44520488,4.06539848 6.64691762,3.55003242 7.91225187,3.51069147 C7.96404775,3.5090716 8.0156072,3.50837733 8.06716658,3.50837733 C8.9985472,3.50837733 9.88238906,3.76987873 10.6276355,4.25978893 C10.2440145,4.40511899 9.86748885,4.56780523 9.49876807,4.74761644 C9.05247173,4.56294549 8.56242079,4.46551886 8.06693008,4.46551886 C7.4420678,4.46551886 6.84109319,4.60668332 6.28008893,4.88507823 C6.05682248,4.99569568 5.96742133,5.2629825 6.08071014,5.48144033 C6.16065086,5.63579562 6.32029584,5.72465982 6.4856171,5.72465982 C6.55467827,5.72465982 6.62468555,5.70915486 6.69043565,5.67652505 C7.12301439,5.46200129 7.58586654,5.35323524 8.06693008,5.35323524 C8.16792033,5.35323524 8.26749147,5.35878925 8.36564358,5.36874014 C8.08585097,5.53998893 7.81197118,5.72188282 7.54447714,5.91372766 C7.50734492,5.94034065 7.46997614,5.96672218 7.43331691,5.99356664 C7.41179439,6.00930295 7.39074492,6.02550218 7.36945895,6.04123855 C7.30347235,6.0900676 7.23772224,6.13935944 7.17268174,6.18934556 C7.16511339,6.19513097 7.15778153,6.20114785 7.15021317,6.20693327 C6.64762717,6.59548276 6.17389548,7.0187448 5.73232929,7.47347958 C5.7304372,7.47533092 5.72878167,7.47718225 5.72688958,7.47903359 C5.65972038,7.54822735 5.59349728,7.61811531 5.52798373,7.6886976 C5.51781374,7.69957417 5.50764381,7.71045079 5.49747382,7.72132741 C5.4433128,7.77987595 5.38986126,7.83911875 5.33688278,7.89859302 C5.31630637,7.92196614 5.29525683,7.94510786 5.27468042,7.96848098 C5.23660209,8.01221882 5.19876032,8.05618811 5.1611551,8.10038881 C5.12709751,8.13996111 5.09303992,8.17953347 5.05969181,8.21956863 C5.04100742,8.24178468 5.02279608,8.26446359 5.00434825,8.28691105 C4.97927805,8.31722671 4.9542079,8.34731092 4.92961075,8.37762659 C4.9371791,7.88447652 5.07530157,7.38692958 5.34090352,6.9331204 C5.46530831,6.72044804 5.39009782,6.44922709 5.17274413,6.32750161 C4.95539044,6.20577619 4.67819947,6.27936683 4.55355812,6.49203925 C4.01998914,7.40359161 3.88281272,8.45885404 4.16449742,9.42201239 C3.93886589,9.76381558 3.73049959,10.1153383 3.53892566,10.4751921 C2.62670241,8.71480143 2.99518669,6.46288066 4.52896097,4.96214014 Z M2.29842511,13.9043322 C2.29298534,13.9304823 2.28730907,13.9566324 2.2818693,13.9830139 C2.27193587,14.0332315 2.26223887,14.0836804 2.25254193,14.1341294 C2.24402753,14.1785615 2.23598619,14.223225 2.22794478,14.2678885 C2.22037643,14.3104693 2.21257158,14.3530501 2.20547621,14.3958622 C2.19128555,14.4805609 2.17756794,14.5652597 2.1650328,14.6501897 C2.16148518,14.6740257 2.15841056,14.6980931 2.15509937,14.7219291 C2.14516594,14.7922799 2.13546894,14.8628622 2.12671804,14.9334444 C2.12269737,14.9649171 2.11891319,14.9963899 2.11536551,15.0278626 C2.10708761,15.0972878 2.09951925,15.1669444 2.09242395,15.2366009 C2.08982231,15.261594 2.08722068,15.2863556 2.0848556,15.3113487 C2.07586815,15.404147 2.0678268,15.4969453 2.06096793,15.5902064 C2.0595489,15.6110339 2.05836636,15.6318615 2.05694726,15.652689 C2.05339958,15.7022124 2.04985196,15.7517356 2.04701383,15.8012589 C1.43161199,15.5082847 1.00920325,15.0183745 0.924059264,14.4488568 C0.847429677,13.9367305 1.04042271,13.4104878 1.46756167,12.9670925 C1.63784964,12.7905211 1.83628245,12.6354716 2.05694726,12.5049523 C2.07066493,12.4982412 2.083673,12.4910673 2.09644462,12.4829677 C2.307176,12.3626307 2.53659171,12.2635842 2.78067114,12.1897621 C2.5808193,12.7481718 2.41999177,13.3206979 2.29842511,13.9043322 Z M2.21895739,11.4429788 C2.16314072,11.0106915 2.13996266,10.6131167 2.27146282,10.3115801 C2.3074125,10.229427 2.34998449,10.1523651 2.39846925,10.0787744 C2.52807731,10.4807461 2.70640669,10.8697584 2.9355859,11.2372489 C2.6877223,11.2865408 2.44790011,11.3555031 2.21895739,11.4429788 Z M28.051406,15.993798 C28.0506964,15.9975007 28.0497504,16.0012034 28.0488043,16.0046746 C28.0476218,16.009303 28.0462028,16.0134685 28.0447837,16.0176339 C28.03012,16.0558178 27.9998466,16.083125 27.9719383,16.0967787 C27.9709922,16.0972415 27.9700462,16.0977043 27.9691001,16.0981672 C27.9518348,16.1062667 27.9312584,16.112515 27.9059517,16.112515 L3.09428485,16.112515 C3.06897815,16.112515 3.04816517,16.1062667 3.03113637,16.0981672 C3.03019033,16.0977043 3.02924429,16.0972415 3.02829824,16.0967787 C3.00038997,16.083125 2.96987999,16.0558178 2.95545283,16.0176339 C2.95379724,16.0134685 2.9523782,16.009303 2.95119566,16.004906 C2.95024956,16.0012034 2.94954007,15.9975007 2.94883052,15.993798 C2.94717493,15.9847727 2.94622888,15.9750532 2.94670194,15.9646394 L2.94670194,15.964408 C2.95119566,15.8697584 2.95710842,15.7751087 2.96396723,15.6806905 C2.96609581,15.6492178 2.96917044,15.6179765 2.97153558,15.5867352 C2.9765023,15.5237897 2.98170558,15.4610756 2.98761834,15.3983616 C2.99116602,15.3597149 2.99565968,15.3210682 2.99968042,15.2826529 C3.00535668,15.2278071 3.01126944,15.1731926 3.01765526,15.1185781 C3.02285847,15.0755346 3.02853474,15.0324909 3.034211,14.9894474 C3.04059682,14.9401555 3.04698263,14.8908636 3.05384144,14.8418032 C3.06070024,14.7943627 3.0680321,14.7469222 3.07536396,14.6994816 C3.08198627,14.656438 3.08884508,14.6133944 3.09594038,14.5701194 C3.10469133,14.5171249 3.11391528,14.4641303 3.12337572,14.4111358 C3.12976148,14.375729 3.13638379,14.3405536 3.1430061,14.3053781 C3.15435863,14.2449783 3.16618421,14.1845783 3.17848279,14.1246413 C3.183686,14.0994168 3.18888927,14.0744237 3.19432898,14.0491993 C3.2089927,13.9793113 3.22412941,13.9091919 3.24044866,13.8395353 C3.2428138,13.8286587 3.24541537,13.8180135 3.24801701,13.8071369 C3.40979058,13.1149681 3.63305703,12.4369157 3.91734337,11.7780709 C3.9218371,11.7678886 3.92491172,11.7572434 3.92845934,11.7465981 C3.95045492,11.6961492 3.97315998,11.6459317 3.99586505,11.5957142 C3.99964922,11.5885402 4.00390639,11.5818291 4.00721758,11.5746552 C4.41354356,10.6783763 4.92440748,9.84134035 5.52325351,9.07696933 C5.53247745,9.0649357 5.5417014,9.0531334 5.55092535,9.04133111 C5.60106563,8.97815423 5.65191553,8.91567156 5.70300192,8.85342035 C5.7233419,8.82865869 5.74344533,8.80366563 5.76402181,8.77913544 C5.80044448,8.73562901 5.83734021,8.69281684 5.87447249,8.64977321 C5.90923957,8.60927519 5.94377022,8.56831436 5.97948335,8.5280478 C5.9882343,8.51809684 5.99722169,8.50837729 6.00597259,8.49842639 C6.26116805,8.21123761 6.53079067,7.93423124 6.81484051,7.66833289 C6.96029477,7.53202817 7.10882372,7.39965748 7.25971782,7.27122098 C7.2620829,7.26936964 7.26421148,7.2672869 7.26657662,7.26543556 C7.33492831,7.20711837 7.40422603,7.14995836 7.47376032,7.09326117 C7.48747793,7.08238454 7.5011956,7.07104511 7.51491328,7.06016849 C7.57546011,7.01133945 7.63647993,6.96320467 7.69773632,6.91553276 C7.72351601,6.89563085 7.7492957,6.87572894 7.77507539,6.85605849 C7.82639834,6.8167176 7.87795772,6.77783951 7.92999016,6.73942422 C7.97067006,6.70934002 8.01158646,6.67971862 8.05250292,6.65032862 C8.09152723,6.62209569 8.13055155,6.59386282 8.16981241,6.56609276 C8.23343388,6.52142925 8.29752839,6.47745996 8.3618594,6.43395352 C8.38030724,6.42145702 8.39851863,6.40896047 8.41696647,6.39646397 C9.41338759,5.7306767 10.511745,5.20258262 11.6829478,4.83763772 C11.6881511,4.83601778 11.6928813,4.83370358 11.697848,4.83185224 C12.0055489,4.73650842 12.317507,4.65319822 12.6327763,4.58145886 C12.6339588,4.58099606 12.6353779,4.58099606 12.6365605,4.5807646 C14.5073631,4.15403128 16.49311,4.15403128 18.3639125,4.5807646 C18.3653316,4.58099606 18.3667507,4.58099606 18.3681698,4.58145886 C18.6832025,4.65319822 18.9949241,4.73650842 19.302625,4.83185224 C19.3075917,4.83347218 19.312322,4.83601778 19.3175252,4.83740626 C20.488728,5.20258262 21.5870854,5.7306767 22.5835066,6.39646397 C22.6019544,6.40872906 22.6201658,6.42145702 22.6386136,6.43395352 C22.7029447,6.47745996 22.7670392,6.52142925 22.8306606,6.56609276 C22.8699214,6.59386282 22.9089458,6.62209569 22.9479701,6.65009722 C22.9888865,6.67971862 23.0298029,6.70934002 23.0704828,6.73942422 C23.1225153,6.77783951 23.1740747,6.8167176 23.2253976,6.85605849 C23.2511773,6.87572894 23.276957,6.89539945 23.3027367,6.91553276 C23.3639931,6.96297327 23.4250129,7.01133945 23.4855598,7.06016849 C23.4992774,7.07104511 23.5129951,7.08215314 23.5267127,7.09326117 C23.596247,7.14995836 23.6653082,7.20711837 23.7338964,7.26543556 C23.7362615,7.2672869 23.7383901,7.26913824 23.7407552,7.27122098 C23.8916493,7.39965748 24.0401782,7.53202817 24.1856325,7.66810143 C24.4696823,7.93399983 24.7393049,8.21123761 24.9945004,8.49842639 C25.0032513,8.50837729 25.0122388,8.51809684 25.0209896,8.5280478 C25.0567028,8.56831436 25.0909969,8.60904379 25.1260006,8.64977321 C25.1631328,8.69281684 25.2000285,8.73562901 25.2364512,8.77913544 C25.2570277,8.80366563 25.2771311,8.82865869 25.2974711,8.85342035 C25.3485575,8.91567156 25.3994074,8.97815423 25.4495477,9.04133111 C25.4587717,9.0531334 25.4679955,9.0649357 25.4772195,9.07673793 C26.0763021,9.84134035 26.5869294,10.6781449 26.9932555,11.5744237 C26.9965666,11.5818291 27.0008238,11.5885402 27.004608,11.5957142 C27.0273131,11.6459317 27.0500181,11.6961492 27.0720136,11.7465981 C27.0755613,11.757012 27.078636,11.7676571 27.0831297,11.7780709 C27.367416,12.4369157 27.5906824,13.1149681 27.752456,13.8073683 C27.7550576,13.8180135 27.7576593,13.8286587 27.7600243,13.8393039 C27.7761071,13.9091919 27.7914803,13.9793113 27.806144,14.0494307 C27.8115838,14.0744237 27.816787,14.0994168 27.8219903,14.1244099 C27.8342888,14.1845783 27.8461144,14.2449783 27.8574669,14.3053781 C27.8640892,14.3405536 27.8707115,14.375729 27.8768608,14.4109044 C27.8865578,14.4641303 27.8957817,14.5171249 27.9045326,14.5703508 C27.911628,14.6133944 27.9184868,14.6562066 27.9251091,14.6992502 C27.932441,14.7469222 27.9397727,14.7943627 27.9463951,14.8420346 C27.9534904,14.8908636 27.9598762,14.9401555 27.966262,14.989216 C27.9719383,15.0322595 27.9776145,15.0753031 27.9828178,15.1185781 C27.9892036,15.1729612 27.9948799,15.2278071 28.0007926,15.2824215 C28.0048133,15.3210682 28.0090705,15.3597149 28.0128547,15.3983616 C28.0187675,15.4610756 28.0237342,15.5237897 28.0287009,15.5865038 C28.0313025,15.6179765 28.0341407,15.6492178 28.0365058,15.6806905 C28.0431281,15.7751087 28.0490409,15.8697584 28.0537711,15.964408 C28.0540076,15.9750532 28.0528251,15.9845413 28.051406,15.993798 Z M28.0651236,11.2363232 C28.2938299,10.8692956 28.4721592,10.4805147 28.6017672,10.0787744 C28.6500155,10.1523651 28.692824,10.229427 28.7285372,10.3115801 C28.8600373,10.6131167 28.8370958,11.01046 28.7812792,11.442516 C28.7758394,11.4404332 28.7699266,11.4388133 28.7644869,11.4367305 C28.7032305,11.4135888 28.6410281,11.3918356 28.5781161,11.3714709 C28.5622699,11.3661483 28.5464236,11.3608257 28.5303409,11.3557345 C28.4612796,11.3342127 28.3915089,11.313848 28.3207921,11.2953346 C28.3058919,11.2914005 28.2907552,11.2881607 28.275855,11.284458 C28.2176733,11.2698788 28.159255,11.2566879 28.1001273,11.2444228 C28.0883017,11.2418772 28.0769492,11.2386374 28.0651236,11.2363232 Z M30.0759407,14.4488568 C29.9907968,15.0183745 29.568388,15.5082847 28.9532227,15.8012589 C28.9503846,15.7517356 28.9466004,15.7022124 28.9432892,15.6529204 C28.9418701,15.6318615 28.9404511,15.6110339 28.9390321,15.589975 C28.9321732,15.4969453 28.9241319,15.404147 28.9153809,15.3113487 C28.9130158,15.2863556 28.9101777,15.2613626 28.907576,15.2363695 C28.9004807,15.1669444 28.8929124,15.0975192 28.884871,15.0280941 C28.8810868,14.9963899 28.8773026,14.9649171 28.873282,14.933213 C28.8645311,14.8628622 28.8550706,14.7927427 28.8451371,14.7226234 C28.841826,14.6983245 28.8387514,14.6742571 28.8349672,14.6501897 C28.8224321,14.5652597 28.8089509,14.4805609 28.7945238,14.3960937 C28.7874284,14.3530501 28.7796236,14.3104693 28.7720552,14.2676571 C28.7640138,14.223225 28.7559725,14.1787929 28.7474581,14.1343608 C28.7379976,14.0839119 28.7283007,14.0332315 28.7181307,13.9827825 C28.7126909,13.9568638 28.7072512,13.9309451 28.7018114,13.9052578 C28.5802447,13.3216236 28.4194172,12.7493289 28.2195654,12.1911506 C28.2370672,12.1964732 28.254569,12.2020272 28.2718343,12.2075812 C28.3013982,12.2168379 28.3307255,12.2267888 28.360053,12.2367398 C28.393401,12.2485421 28.4267491,12.2605758 28.4596241,12.2733037 C28.4766529,12.2797834 28.4932087,12.2867259 28.510001,12.293437 C28.6500155,12.3503656 28.7855363,12.4156253 28.9153809,12.4906044 C28.9208207,12.4938443 28.92697,12.4961585 28.9326463,12.4991669 C29.1573317,12.6308433 29.3597852,12.7877441 29.5326748,12.9673239 C29.9595773,13.4104878 30.1525703,13.9367305 30.0759407,14.4488568 Z" id="Shape" fill="#000000"></path>
                <path d="M10.4868608,1.73946959 C10.7886405,1.73488653 11.1329244,1.79634086 11.4974603,1.86071163 C11.8869986,1.92945716 12.2857878,1.9998692 12.6820769,1.9998692 C12.8385922,1.9998692 12.9946076,1.98903657 13.1493728,1.96257996 C13.6866757,1.87071098 14.1617224,1.59572896 14.6210176,1.32991302 C15.092564,1.05680587 15.5381078,0.7991144 15.9428977,0.7991144 C16.3479375,0.7991144 16.7932313,1.05701417 17.2650278,1.32991302 C17.724323,1.59572896 18.1993697,1.87071098 18.7366726,1.96257996 C19.2834764,2.05590719 19.8452817,1.956747 20.3885851,1.86071163 C20.7881244,1.79009124 21.1656616,1.72363724 21.4861931,1.7428027 C21.749719,1.75863495 21.9799917,1.59281251 21.9987435,1.37261854 C22.0177454,1.15263293 21.8189759,0.961395466 21.5546998,0.945563168 C21.0991551,0.918481579 20.6368596,1.0001429 20.1898155,1.07909609 C19.7220195,1.16159069 19.2799761,1.23950229 18.9291915,1.17971452 C18.5846577,1.12096834 18.2093707,0.903690867 17.8120816,0.673705909 C17.2400253,0.3424776 16.6482171,0 15.9428977,0 C15.2378283,0 14.6460201,0.3424776 14.0739638,0.673705909 C13.6766747,0.903690867 13.3013878,1.12096834 12.9568539,1.17971452 C12.6060694,1.2397106 12.1640259,1.16159069 11.6962298,1.07909609 C11.2959405,1.00826739 10.8811496,0.935563822 10.4721094,0.940563495 C10.2073333,0.944104917 9.99581255,1.1257597 10.000063,1.34637029 C10.0040633,1.56698082 10.2233349,1.74342762 10.4868608,1.73946959 Z" id="Shape" fill="#000000"></path>
            </g>
        </g>
    </g>
</svg>