<?xml version="1.0" encoding="UTF-8"?>
<svg width="16px" height="16px" viewBox="0 0 16 16" version="1.1" xmlns="http://www.w3.org/2000/svg" xmlns:xlink="http://www.w3.org/1999/xlink">
    <!-- Generator: Sketch 51.2 (57519) - http://www.bohemiancoding.com/sketch -->
    <title>icon--cart</title>
    <desc>Created with Sketch.</desc>
    <defs></defs>
    <g id="Page-9" stroke="none" stroke-width="1" fill="none" fill-rule="evenodd">
        <g id="A-|-Order:-Step-1-|-Medium-Copy" transform="translate(-944.000000, -16.000000)" fill="#5AAAFA" fill-rule="nonzero">
            <g id="L0-Header---a">
                <g id="Icons" transform="translate(904.000000, 16.000000)">
                    <path d="M53.0003974,12 L45.5001681,12 C45.0646443,11.9997049 44.6793849,11.7053288 44.547639,11.2721739 L41.767554,2.08695652 L41.0000306,2.08695652 C40.4477289,2.08695652 40,1.61977539 40,1.04347826 C40,0.467181131 40.4477289,0 41.0000306,0 L42.5000764,0 C42.9362761,0.000655202868 43.321746,0.296247858 43.4526056,0.730434783 L44.1801278,3.13043478 L55.0004586,3.13043478 C55.317895,3.13059947 55.6164035,3.28801152 55.8048074,3.55459084 C55.9932113,3.82117016 56.0491316,4.1652518 55.9554878,4.48173913 L53.9554266,11.2643478 C53.8260747,11.7015181 53.4388786,11.9997725 53.0003974,12 Z M45,14.5 C45,15.3284271 45.6715729,16 46.5,16 C47.3284271,16 48,15.3284271 48,14.5 C48,13.6715729 47.3284271,13 46.5,13 C45.6715729,13 45,13.6715729 45,14.5 Z M51,14.5 C51,15.3284271 51.6715729,16 52.5,16 C53.3284271,16 54,15.3284271 54,14.5 C54,13.6715729 53.3284271,13 52.5,13 C51.6715729,13 51,13.6715729 51,14.5 Z" id="Shape"></path>
                </g>
            </g>
        </g>
    </g>
</svg>